# xmcd
#
# Track frame offsets:
#	150
#	15225
#	29625
#	44550
#	58125
#	73275
#	88050
#	100725
#	112875
#	127875
#	144300
#	160275
#	171375
#	183975
#	194700
#	208275
#	222450
#	237525
#	251175
#	265650
#
# Disc length: 3726 seconds
#
# Revision: 1
# Processed by: cddbd v1.5.2PL0 Copyright (c) Steve Scherf et al.
# Submitted via: EasyCDDAExtractor 16.0.8.2
#
DISCID=370e8c14
DTITLE=Λαμπράκη Χαρούλα - Από τους θησ. 45 στροφών-Λαμπράκη Χαρούλα
DYEAR=1995
DGENRE=Λαϊκή
TTITLE0=Λαμπράκη Χαρούλα-Τσιτσάνης Βασίλης - Απόψε στις ακρογιαλιές [Βασίλη Τσ
TTITLE0=ιτσάνη]
TTITLE1=Λαμπράκη Χαρούλα - Στου κάτω κόσμου τα σκαλιά [Α.Καλδάρα-Ουρ.Λιανδράκη
TTITLE1=]
TTITLE2=Λαμπράκη Χαρούλα-Χιώτης Μανώλης - Απόψε έχω μεγάλο πόνο [Μ. Χιώτη]
TTITLE3=Λαμπράκη Χαρούλα - Ρίχνω σπάγγο, να σε δέσω [Μ. Πλέσσα-Ά. Δασκαλόπουλο
TTITLE3=υ]
TTITLE4=Λαμπράκη Χαρούλα - Αρχή και τέλος είσαι εσύ [Τ. Σούκα-Ηρ. Παπασιδέρη]
TTITLE5=Λαμπράκη Χαρούλα - Μάθε πρώτα, ν' αγαπάς [Ν. Δαλέζιου-Ζ. Δαλέζιου]
TTITLE6=Λαμπράκη Χαρούλα - Το ξέρω, θα με θυμηθείς [Γρ. Μπιθικώτση-Γ. Βρούβα]
TTITLE7=Λαμπράκη Χαρούλα - Τα χέρια της ντροπής [Ά. Πάνου]
TTITLE8=Λαμπράκη Χαρούλα-Καλδάρας Απόστολος - Τα καλά όλου του κόσμου [Απ. Καλ
TTITLE8=δάρα-Ουρ. Λιανδράκη]
TTITLE9=Λαμπράκη Χαρούλα - Μοιρολόϊ [Μ. Πλέσσα]
TTITLE10=Λαμπράκη Χαρούλα - Πότε θά 'ρθεις, πότε θά 'ρθεις [Ν. Δαλέζιου]
TTITLE11=Λαμπράκη Χαρούλα-χορωδία - Κάποιος [Ά. Πάνου]
TTITLE12=Λαμπράκη Χαρούλα-Παντελάκη Κική - Ταίρι μου χαμένο [Ά. Πάνου]
TTITLE13=Λαμπράκη Χαρούλα-Καραμπεσίνης Γιάννης - Θέλω πολύ, να μ' αγαπάς [Γ. Κ
TTITLE13=αραμπεσίνη]
TTITLE14=Λαμπράκη Χαρούλα - Απόψε [Μ. Πλέσσα-Χρ. Γιαννακόπουλου]
TTITLE15=Λαμπράκη Χαρούλα-χορωδία - Το παράκανες Βασίλη [Ά. Πάνου]
TTITLE16=Λαμπράκη Χαρούλα-Σιναϊδης Θόδωρος - Και να φύγεις, θα γυρίσεις [Ν. Δα
TTITLE16=λέζιου]
TTITLE17=Λαμπράκη Χαρούλα - Στις τρεις πριν τα χαράματα [Μ.Πλέσσα-Ά.Δασκαλόπου
TTITLE17=λου]
TTITLE18=Λαμπράκη Χαρούλα - Θα πεθάνω τσάμπα [Ν. Δαλέζιου]
TTITLE19=Λαμπράκη Χαρούλα-Ρεπάνης Αντώνης - Οι δυό καρδιές [Α. Ρεπάνη-Κ. Τσιρι
TTITLE19=γώτη]
EXTD=
EXTT0=
EXTT1=
EXTT2=
EXTT3=
EXTT4=
EXTT5=
EXTT6=
EXTT7=
EXTT8=
EXTT9=
EXTT10=
EXTT11=
EXTT12=
EXTT13=
EXTT14=
EXTT15=
EXTT16=
EXTT17=
EXTT18=
EXTT19=
PLAYORDER=
